<svg width="108" height="48" viewBox="0 0 108 48" fill="none" xmlns="http://www.w3.org/2000/svg">
<path d="M68.6754 2.44182C65.4464 5.69759 65.4464 10.9952 68.6754 14.251C71.9043 17.5067 77.1582 17.5067 80.3871 14.251C83.616 10.9952 83.616 5.69759 80.3871 2.44182C77.1582 -0.813942 71.9043 -0.813942 68.6754 2.44182ZM77.217 11.0538C75.7362 12.547 73.327 12.547 71.8461 11.0538C70.3653 9.56067 70.3653 7.13141 71.8461 5.63826C73.327 4.1451 75.7362 4.1451 77.2163 5.63826C78.6972 7.13211 78.6972 9.56137 77.217 11.0538Z" fill="white"/>
<path d="M94.4834 19.8686C94.4834 15.2643 90.7685 11.5186 86.202 11.5186H80.1776C78.9335 11.5186 77.9207 12.5391 77.9207 13.7942C77.9207 15.0318 78.9328 16.0398 80.1776 16.0398H86.202C88.2962 16.0398 89.9993 17.7577 89.9993 19.8693C89.9993 21.1236 91.0114 22.1449 92.2562 22.1449C93.4844 22.1442 94.4834 21.1229 94.4834 19.8686Z" fill="white"/>
<path d="M74.1372 28.2187C78.7037 28.2187 82.4186 24.4729 82.4186 19.8685V13.7933C82.4186 12.5388 81.4065 11.5176 80.1617 11.5176C78.9342 11.5176 77.9345 12.5381 77.9345 13.7933V19.8678C77.9345 21.9794 76.2308 23.6966 74.1366 23.6966C72.8925 23.6966 71.8796 24.7172 71.8796 25.9723C71.8803 27.2114 72.8925 28.2187 74.1372 28.2187Z" fill="white"/>
<path d="M8.25159 28.2967C9.61404 28.2967 10.8782 29.0296 11.5601 30.2268C12.1929 31.274 13.5311 31.6335 14.6076 31.0457L14.6402 31.0268C15.6939 30.3804 16.0532 28.9926 15.4405 27.933C13.9541 25.3689 11.1994 23.7766 8.25159 23.7766C3.70176 23.7752 0 27.5218 0 32.1263C0 36.7308 3.70176 40.4767 8.25159 40.4767C11.0928 40.4767 13.6959 39.0457 15.2106 36.654C15.8919 35.6013 15.6046 34.1905 14.5502 33.498C13.5027 32.8558 12.114 33.1651 11.448 34.194C10.7522 35.297 9.55658 35.9553 8.25159 35.9553C6.19267 35.9553 4.4536 34.2017 4.4536 32.1263C4.4536 30.0146 6.15736 28.2967 8.25159 28.2967Z" fill="#EE3831"/>
<path d="M26.4523 26.0212C26.4523 24.7828 25.4402 23.7755 24.1954 23.7755C19.629 23.7755 15.9141 27.5213 15.9141 32.1258V38.2004C15.9141 39.4548 16.9262 40.4761 18.171 40.4761C19.3984 40.4761 20.3981 39.4555 20.3981 38.2004V32.1258C20.3981 30.0142 22.1019 28.2969 24.1961 28.2969C25.4402 28.2969 26.4523 27.2763 26.4523 26.0212Z" fill="#EE3831"/>
<path d="M33.1253 23.7452C28.5589 23.7452 24.844 27.4911 24.844 32.0955C24.844 36.7 28.5589 40.4458 33.1253 40.4458H33.1973C33.2223 40.4458 33.2465 40.4458 33.2714 40.4458C34.4013 40.4458 36.0808 40.4165 38.1556 39.0218C39.2322 38.3139 39.6386 37.0944 39.1387 36.0445C38.8424 35.4463 38.2872 34.9862 37.6551 34.8138C37.0964 34.6616 36.5329 34.7461 36.0711 35.0498C34.8803 35.8253 33.8717 35.9251 33.1253 35.9251C31.8958 35.9251 30.7632 35.3185 30.055 34.3412H39.1505C40.3946 34.3412 41.4074 33.3339 41.4074 32.0955C41.4067 26.6722 37.14 23.7452 33.1253 23.7452ZM33.1253 28.2666C34.1825 28.2666 35.5069 28.6918 36.2809 29.8198H30.0661C30.7764 28.8614 31.9041 28.2666 33.1253 28.2666Z" fill="#EE3831"/>
<path d="M50.0584 23.8058C45.3812 23.8058 41.7168 27.4999 41.7168 32.2167C41.7168 36.8148 45.3805 40.416 50.0584 40.416C51.6403 40.416 52.9522 40.0775 54.1091 39.362C54.5348 40.0063 55.2597 40.416 55.9333 40.416C57.2203 40.416 58.1902 39.4381 58.1902 38.1404V32.2167C58.1895 27.4999 54.6179 23.8058 50.0584 23.8058ZM50.0584 35.9247C47.915 35.9247 46.1711 34.2613 46.1711 32.2167C46.1711 30.0918 47.951 28.2971 50.0584 28.2971C52.0862 28.2971 53.7359 30.0555 53.7359 32.2167C53.7359 34.3304 52.1547 35.9247 50.0584 35.9247Z" fill="#EE3831"/>
<path d="M68.3802 26.0204C68.3802 27.2747 67.3681 28.2966 66.1226 28.2966H64.7539V38.1989C64.7539 39.4546 63.7404 40.4751 62.4963 40.4751C61.2688 40.4751 60.2698 39.4546 60.2698 38.1989V28.2966H58.87C57.6419 28.2966 56.6436 27.2747 56.6436 26.0204C56.6436 24.7821 57.6425 23.7755 58.87 23.7755H60.2698C63.7999 23.7755 64.7546 23.7755 64.7546 23.7755H66.1233C67.3681 23.7748 68.3802 24.7821 68.3802 26.0204Z" fill="#EE3831"/>
<path d="M91.8966 23.7755C87.3301 23.7755 83.6152 27.5213 83.6152 32.1258V38.2004C83.6152 39.4548 84.6274 40.4761 85.8721 40.4761C87.0996 40.4761 88.0993 39.4555 88.0993 38.2004V32.1258C88.0993 30.0142 89.8031 28.2969 91.8973 28.2969C93.1414 28.2969 94.1542 27.2763 94.1542 26.0212C94.1528 24.7828 93.1407 23.7755 91.8966 23.7755Z" fill="#EE3831"/>
<path d="M105.743 23.8663C104.515 23.8663 103.515 24.8736 103.515 26.112V33.607C103.515 34.9019 102.471 35.9553 101.187 35.9553C99.9023 35.9553 98.8576 34.9019 98.8576 33.607V26.112C98.8576 24.8736 97.8586 23.8663 96.6305 23.8663C95.403 23.8663 94.4033 24.8736 94.4033 26.112V33.6741C94.4372 37.408 97.4799 40.4459 101.187 40.4459C101.991 40.4459 102.78 40.307 103.515 40.0397V41.0107C103.515 42.3719 102.404 43.4797 101.037 43.4797C100.103 43.4797 99.2515 42.9492 98.8105 42.094C98.5641 41.5656 98.1044 41.1496 97.5464 40.9513C96.9773 40.7489 96.3716 40.7845 95.853 41.0463C95.3068 41.3101 94.8983 41.7736 94.7031 42.3509C94.5085 42.924 94.548 43.5348 94.8118 44.0682C95.997 46.4939 98.3827 48.0003 101.037 48.0003C104.877 48.0003 108 44.8646 108 41.01V26.112C108 24.8736 106.987 23.8663 105.743 23.8663Z" fill="#EE3831"/>
</svg>
